<svg width="25" height="24" viewBox="0 0 25 24" fill="none" xmlns="http://www.w3.org/2000/svg">
<g clip-path="url(#clip0_3677_3833)">
<path d="M2 5.25C2 4.65326 2.23705 4.08097 2.65901 3.65901C3.08097 3.23705 3.65326 3 4.25 3H14.75C15.3467 3 15.919 3.23705 16.341 3.65901C16.7629 4.08097 17 4.65326 17 5.25V12.75C17 13.3467 16.7629 13.919 16.341 14.341C15.919 14.7629 15.3467 15 14.75 15H4.25C3.65326 15 3.08097 14.7629 2.65901 14.341C2.23705 13.919 2 13.3467 2 12.75V5.25ZM8.1275 19.5C8.28276 19.9388 8.57024 20.3187 8.95036 20.5873C9.33048 20.856 9.78454 21.0001 10.25 21H14.75C19.3055 21 23 17.3062 23 12.75V11.25C23.0001 10.7845 22.856 10.3305 22.5873 9.95036C22.3187 9.57024 21.9388 9.28276 21.5 9.1275V12.75C21.5 14.5402 20.7888 16.2571 19.523 17.523C18.2571 18.7888 16.5402 19.5 14.75 19.5H8.1275ZM7.25 18C6.78454 18.0001 6.33048 17.856 5.95036 17.5873C5.57024 17.3187 5.28276 16.9388 5.1275 16.5H14.75C15.2425 16.5 15.7301 16.403 16.1851 16.2145C16.64 16.0261 17.0534 15.7499 17.4017 15.4017C17.7499 15.0534 18.0261 14.64 18.2145 14.1851C18.403 13.7301 18.5 13.2425 18.5 12.75V6.1275C19.373 6.4365 20 7.2705 20 8.25V12.75C20 14.1424 19.4469 15.4777 18.4623 16.4623C17.4777 17.4469 16.1424 18 14.75 18H7.25Z" fill="#A6ADB6"/>
</g>
<defs>
<clipPath id="clip0_3677_3833">
<rect width="24" height="24" fill="white" transform="translate(0.5)"/>
</clipPath>
</defs>
</svg>
